<svg width="170" height="45" viewBox="0 0 170 45" fill="none" xmlns="http://www.w3.org/2000/svg">
<path fill-rule="evenodd" clip-rule="evenodd" d="M6.61676 17.9293C6.61676 19.075 6.26734 20.1934 5.61514 21.1354C4.96293 22.0773 4.61352 23.1958 4.61352 24.3415V39.1512C4.61352 39.4864 4.8853 39.7582 5.22056 39.7582H27.3776C27.7128 39.7582 27.9846 39.4864 27.9846 39.1512V24.3208C27.9846 23.1751 28.334 22.0567 28.9862 21.1147C29.6385 20.1728 29.9879 19.0544 29.9879 17.9087V4.92068C29.9879 4.58542 29.7161 4.31364 29.3808 4.31364H7.2238C6.88854 4.31364 6.61676 4.58542 6.61676 4.92068V17.9293ZM33.5998 21.1354C34.252 20.1934 34.6014 19.075 34.6014 17.9293V1.82113C34.6014 0.815346 33.786 0 32.7803 0H3.82436C2.81858 0 2.00324 0.815346 2.00324 1.82113V17.9087C2.00324 19.0544 1.65382 20.1728 1.00162 21.1147C0.349417 22.0567 0 23.1751 0 24.3208V42.2501C0 43.2559 0.815346 44.0712 1.82113 44.0712H30.777C31.7828 44.0712 32.5981 43.2559 32.5981 42.2501V24.3415C32.5981 23.1958 32.9476 22.0773 33.5998 21.1354Z" fill="#34495E"/>
<path d="M13.7924 34.3209C13.323 33.846 13.3252 33.0812 13.7974 32.609L15.4943 30.9121C15.9703 30.436 16.7429 30.4383 17.2162 30.9172L18.9232 32.6442C19.3926 33.1191 19.3903 33.8839 18.9182 34.3561L17.2213 36.053C16.7452 36.5291 15.9726 36.5268 15.4993 36.0479L13.7924 34.3209Z" fill="#00B65E"/>
<path d="M52.1855 32.1023L46.7188 16.529C46.3455 15.4623 45.1188 15.489 45.1188 15.0623C45.1188 14.7423 45.4122 14.1823 45.6255 14.1823C46.6922 14.2356 48.0788 14.2623 49.4655 14.2623C50.8522 14.2623 52.2388 14.2356 53.3055 14.1823C53.5188 14.1823 53.7855 14.7423 53.7855 15.0623C53.7855 15.489 52.1055 15.4623 52.4788 16.529L56.4522 27.9956L60.4255 16.529C60.7988 15.4623 59.1188 15.489 59.1188 15.0623C59.1188 14.7423 59.3855 14.1556 59.5988 14.1823C60.0255 14.2356 60.8255 14.2623 61.6255 14.2623C62.4255 14.2623 63.2255 14.2356 63.6255 14.1823C63.8388 14.1556 64.1322 14.7423 64.1322 15.0623C64.1322 15.489 62.9055 15.4623 62.5322 16.529L57.0655 32.1023C56.1588 32.049 55.3855 32.0223 54.6388 32.0223C53.8655 32.0223 53.1188 32.049 52.1855 32.1023ZM71.7555 29.3556C73.1688 29.3556 74.6355 28.689 75.5688 27.6223C75.6755 27.5156 75.8088 27.4623 75.9422 27.4623C76.1822 27.4623 76.4488 27.6223 76.4488 27.9423C76.4488 28.8223 74.7688 32.369 69.7822 32.369C65.5955 32.369 62.5822 29.5423 62.5822 25.569C62.5822 21.649 65.5155 18.769 69.5155 18.769C72.9555 18.769 75.5955 20.8223 75.5955 23.409C75.5955 26.2356 71.4088 27.7023 68.8488 27.969C69.5155 28.8756 70.5288 29.3556 71.7555 29.3556ZM68.2355 26.849C69.7022 25.7023 70.9022 24.4756 70.9022 22.4223C70.9022 21.089 70.3955 20.369 69.4622 20.369C68.3422 20.369 67.7822 21.5956 67.7822 23.809C67.7822 25.0356 67.9422 26.049 68.2355 26.849ZM85.7147 31.5956V30.3423C84.6747 31.4623 83.3413 32.369 82.3813 32.369C79.3147 32.369 77.2347 30.849 77.2347 28.689C77.2347 24.689 82.968 25.0623 85.7147 24.5556V24.1556C85.7147 21.3023 85.2347 20.369 83.928 20.369C83.0747 20.369 82.5413 20.7156 82.5413 21.4356C82.5413 22.5823 83.4747 22.529 83.4747 22.849C83.4747 23.809 82.7013 24.6623 80.888 24.6623C79.1013 24.6623 78.0613 23.8356 78.0613 22.4756C78.0613 20.289 80.488 18.769 84.1147 18.769C88.4347 18.769 90.8347 20.7956 90.8347 24.5023V29.729C90.8347 30.8756 92.0347 30.769 92.0347 31.1956C92.0347 31.5156 91.7413 32.1023 91.528 32.1023C89.4213 31.9956 88.728 31.9956 86.5947 32.0756C86.2747 32.1023 85.7147 31.809 85.7147 31.5956ZM83.7147 29.6223C84.7013 29.6223 85.7147 28.289 85.7147 26.4756V26.1556C84.1947 26.7156 82.4347 26.929 82.4347 28.369C82.4347 29.1956 83.0213 29.6223 83.7147 29.6223Z" fill="#34495E"/>
<path d="M104.135 29.3556C105.868 29.3556 107.255 28.5823 108.828 26.8223C108.988 26.6356 109.788 26.8756 109.788 27.089C109.788 27.969 107.495 32.369 102.002 32.369C96.8551 32.369 93.1484 28.5023 93.1484 23.1423C93.1484 17.729 96.9351 13.889 102.242 13.889C104.375 13.889 105.362 14.4223 106.268 14.4223C106.935 14.4223 107.148 14.1556 107.575 14.1556C107.922 14.1556 108.135 14.4756 108.268 14.9823C108.375 15.3823 108.962 18.769 108.962 18.9823C108.962 19.1956 108.375 19.7556 108.055 19.7556C107.575 19.7556 106.242 15.809 103.015 15.809C100.508 15.809 99.0151 18.209 99.0151 22.209C99.0151 26.7423 100.935 29.3556 104.135 29.3556ZM117.885 18.769C122.018 18.769 125.005 21.6223 125.005 25.569C125.005 29.5156 122.018 32.369 117.885 32.369C113.752 32.369 110.765 29.5156 110.765 25.569C110.765 21.6223 113.752 18.769 117.885 18.769ZM117.885 20.369C116.632 20.369 115.992 22.049 115.992 25.569C115.992 29.089 116.632 30.769 117.885 30.769C119.138 30.769 119.778 29.089 119.778 25.569C119.778 22.049 119.138 20.369 117.885 20.369ZM126.513 20.289C129.233 20.0223 131.02 19.0356 131.447 19.0356C131.767 19.0356 132.327 19.329 132.327 19.5423V20.9823C133.687 19.7823 135.42 18.769 136.46 18.769C138.967 18.769 140.7 20.529 140.7 23.1956V29.729C140.7 30.8756 141.9 30.7956 141.9 31.2223C141.9 31.5423 141.607 32.1023 141.393 32.1023C140.353 32.049 139.233 32.0223 138.14 32.0223C137.047 32.0223 135.953 32.049 134.887 32.1023C134.673 32.1023 134.407 31.5423 134.407 31.2223C134.407 30.7956 135.58 30.8756 135.58 29.729V23.649C135.58 22.289 135.18 21.649 134.327 21.649C133.34 21.649 132.327 23.5423 132.327 25.3556V29.729C132.327 30.8756 133.527 30.7956 133.527 31.2223C133.527 31.5423 133.233 32.1023 133.02 32.1023C131.98 32.049 130.86 32.0223 129.767 32.0223C128.673 32.0223 127.58 32.049 126.513 32.1023C126.3 32.1023 126.033 31.5423 126.033 31.2223C126.033 30.7956 127.207 30.8756 127.207 29.729V22.6356C127.207 21.5156 126.033 21.5956 126.033 21.169C126.033 20.849 126.3 20.3156 126.513 20.289ZM147.532 15.409C147.852 15.409 148.439 15.7023 148.439 15.9156V19.2756L152.279 19.0356C152.545 19.0356 152.652 19.169 152.652 19.329C152.652 20.1556 152.439 20.9823 151.825 20.929C151.132 20.8756 149.559 20.849 148.439 20.8223V27.329C148.439 28.8223 148.919 29.329 149.692 29.329C150.439 29.329 151.212 28.8223 152.252 27.6223C152.412 27.4356 153.239 27.6756 153.239 27.889C153.239 28.769 151.479 32.369 147.559 32.369C145.052 32.369 143.319 30.609 143.319 27.9423V21.7556C143.319 20.6356 141.852 20.7156 141.852 20.289C141.852 19.969 142.145 19.4356 142.359 19.409C145.079 19.1423 147.132 15.409 147.532 15.409ZM162.433 31.5956V30.3423C161.393 31.4623 160.06 32.369 159.1 32.369C156.033 32.369 153.953 30.849 153.953 28.689C153.953 24.689 159.687 25.0623 162.433 24.5556V24.1556C162.433 21.3023 161.953 20.369 160.647 20.369C159.793 20.369 159.26 20.7156 159.26 21.4356C159.26 22.5823 160.193 22.529 160.193 22.849C160.193 23.809 159.42 24.6623 157.607 24.6623C155.82 24.6623 154.78 23.8356 154.78 22.4756C154.78 20.289 157.207 18.769 160.833 18.769C165.153 18.769 167.553 20.7956 167.553 24.5023V29.729C167.553 30.8756 168.753 30.769 168.753 31.1956C168.753 31.5156 168.46 32.1023 168.247 32.1023C166.14 31.9956 165.447 31.9956 163.313 32.0756C162.993 32.1023 162.433 31.809 162.433 31.5956ZM160.433 29.6223C161.42 29.6223 162.433 28.289 162.433 26.4756V26.1556C160.913 26.7156 159.153 26.929 159.153 28.369C159.153 29.1956 159.74 29.6223 160.433 29.6223Z" fill="url(#paint0_linear_240_280)"/>
<defs>
<linearGradient id="paint0_linear_240_280" x1="44.7988" y1="5.12098" x2="81.756" y2="82.2566" gradientUnits="userSpaceOnUse">
<stop stop-color="#00B65E"/>
<stop offset="1" stop-color="#7DDF3D"/>
</linearGradient>
</defs>
</svg>
