<svg width="169" height="45" viewBox="0 0 169 45" fill="none" xmlns="http://www.w3.org/2000/svg">
<path fill-rule="evenodd" clip-rule="evenodd" d="M6.61676 17.9293C6.61676 19.075 6.26734 20.1934 5.61514 21.1354C4.96293 22.0773 4.61352 23.1958 4.61352 24.3415V39.1512C4.61352 39.4864 4.8853 39.7582 5.22056 39.7582H27.3776C27.7128 39.7582 27.9846 39.4864 27.9846 39.1512V24.3208C27.9846 23.1751 28.334 22.0567 28.9862 21.1147C29.6385 20.1728 29.9879 19.0544 29.9879 17.9087V4.92068C29.9879 4.58542 29.7161 4.31364 29.3808 4.31364H7.2238C6.88854 4.31364 6.61676 4.58542 6.61676 4.92068V17.9293ZM33.5998 21.1354C34.252 20.1934 34.6014 19.075 34.6014 17.9293V1.82113C34.6014 0.815346 33.786 0 32.7803 0H3.82436C2.81858 0 2.00324 0.815346 2.00324 1.82113V17.9087C2.00324 19.0544 1.65382 20.1728 1.00162 21.1147C0.349417 22.0567 0 23.1751 0 24.3208V42.2501C0 43.2559 0.815346 44.0712 1.82113 44.0712H30.777C31.7828 44.0712 32.5981 43.2559 32.5981 42.2501V24.3415C32.5981 23.1958 32.9476 22.0773 33.5998 21.1354Z" fill="#E6F8EF"/>
<path d="M13.7924 34.3209C13.323 33.846 13.3252 33.0812 13.7974 32.609L15.4943 30.9121C15.9703 30.436 16.7429 30.4383 17.2162 30.9172L18.9232 32.6442C19.3926 33.1191 19.3903 33.8839 18.9182 34.3561L17.2213 36.053C16.7452 36.5291 15.9726 36.5268 15.4993 36.0479L13.7924 34.3209Z" fill="#00B65E"/>
<path d="M162.433 31.5962V30.3429C161.393 31.4629 160.06 32.3695 159.1 32.3695C156.033 32.3695 153.953 30.8495 153.953 28.6895C153.953 24.6895 159.686 25.0629 162.433 24.5562V24.1562C162.433 21.3029 161.953 20.3695 160.646 20.3695C159.793 20.3695 159.26 20.7162 159.26 21.4362C159.26 22.5829 160.193 22.5295 160.193 22.8495C160.193 23.8095 159.42 24.6629 157.606 24.6629C155.82 24.6629 154.78 23.8362 154.78 22.4762C154.78 20.2895 157.206 18.7695 160.833 18.7695C165.153 18.7695 167.553 20.7962 167.553 24.5029V29.7295C167.553 30.8762 168.753 30.7695 168.753 31.1962C168.753 31.5162 168.46 32.1029 168.246 32.1029C166.14 31.9962 165.446 31.9962 163.313 32.0762C162.993 32.1029 162.433 31.8095 162.433 31.5962ZM160.433 29.6229C161.42 29.6229 162.433 28.2895 162.433 26.4762V26.1562C160.913 26.7162 159.153 26.9295 159.153 28.3695C159.153 29.1962 159.74 29.6229 160.433 29.6229Z" fill="#00B65E"/>
<path d="M147.532 15.4082C147.852 15.4082 148.438 15.7015 148.438 15.9149V19.2749L152.278 19.0349C152.545 19.0349 152.652 19.1682 152.652 19.3282C152.652 20.1549 152.438 20.9815 151.825 20.9282C151.132 20.8749 149.558 20.8482 148.438 20.8215V27.3282C148.438 28.8215 148.918 29.3282 149.692 29.3282C150.438 29.3282 151.212 28.8215 152.252 27.6215C152.412 27.4349 153.238 27.6749 153.238 27.8882C153.238 28.7682 151.478 32.3682 147.558 32.3682C145.052 32.3682 143.318 30.6082 143.318 27.9415V21.7549C143.318 20.6349 141.852 20.7149 141.852 20.2882C141.852 19.9682 142.145 19.4349 142.358 19.4082C145.078 19.1415 147.132 15.4082 147.532 15.4082Z" fill="#00B65E"/>
<path d="M126.513 20.2895C129.233 20.0229 131.02 19.0362 131.447 19.0362C131.767 19.0362 132.327 19.3295 132.327 19.5429V20.9829C133.687 19.7829 135.42 18.7695 136.46 18.7695C138.967 18.7695 140.7 20.5295 140.7 23.1962V29.7295C140.7 30.8762 141.9 30.7962 141.9 31.2229C141.9 31.5429 141.607 32.1029 141.393 32.1029C140.353 32.0495 139.233 32.0229 138.14 32.0229C137.047 32.0229 135.953 32.0495 134.887 32.1029C134.673 32.1029 134.407 31.5429 134.407 31.2229C134.407 30.7962 135.58 30.8762 135.58 29.7295V23.6495C135.58 22.2895 135.18 21.6495 134.327 21.6495C133.34 21.6495 132.327 23.5429 132.327 25.3562V29.7295C132.327 30.8762 133.527 30.7962 133.527 31.2229C133.527 31.5429 133.233 32.1029 133.02 32.1029C131.98 32.0495 130.86 32.0229 129.767 32.0229C128.673 32.0229 127.58 32.0495 126.513 32.1029C126.3 32.1029 126.033 31.5429 126.033 31.2229C126.033 30.7962 127.207 30.8762 127.207 29.7295V22.6362C127.207 21.5162 126.033 21.5962 126.033 21.1695C126.033 20.8495 126.3 20.3162 126.513 20.2895Z" fill="#00B65E"/>
<path d="M117.886 18.7695C122.019 18.7695 125.006 21.6229 125.006 25.5695C125.006 29.5162 122.019 32.3695 117.886 32.3695C113.752 32.3695 110.766 29.5162 110.766 25.5695C110.766 21.6229 113.752 18.7695 117.886 18.7695ZM117.886 20.3695C116.632 20.3695 115.992 22.0495 115.992 25.5695C115.992 29.0895 116.632 30.7695 117.886 30.7695C119.139 30.7695 119.779 29.0895 119.779 25.5695C119.779 22.0495 119.139 20.3695 117.886 20.3695Z" fill="#00B65E"/>
<path d="M104.135 29.3553C105.868 29.3553 107.255 28.582 108.828 26.822C108.988 26.6353 109.788 26.8753 109.788 27.0887C109.788 27.9687 107.495 32.3687 102.002 32.3687C96.8551 32.3687 93.1484 28.502 93.1484 23.142C93.1484 17.7287 96.9351 13.8887 102.242 13.8887C104.375 13.8887 105.362 14.422 106.268 14.422C106.935 14.422 107.148 14.1553 107.575 14.1553C107.922 14.1553 108.135 14.4753 108.268 14.982C108.375 15.382 108.962 18.7687 108.962 18.982C108.962 19.1953 108.375 19.7553 108.055 19.7553C107.575 19.7553 106.242 15.8087 103.015 15.8087C100.508 15.8087 99.0151 18.2087 99.0151 22.2087C99.0151 26.742 100.935 29.3553 104.135 29.3553Z" fill="#00B65E"/>
<path d="M85.7144 31.5962V30.3429C84.6744 31.4629 83.341 32.3695 82.381 32.3695C79.3144 32.3695 77.2344 30.8495 77.2344 28.6895C77.2344 24.6895 82.9677 25.0629 85.7144 24.5562V24.1562C85.7144 21.3029 85.2344 20.3695 83.9277 20.3695C83.0744 20.3695 82.541 20.7162 82.541 21.4362C82.541 22.5829 83.4744 22.5295 83.4744 22.8495C83.4744 23.8095 82.701 24.6629 80.8877 24.6629C79.101 24.6629 78.061 23.8362 78.061 22.4762C78.061 20.2895 80.4877 18.7695 84.1144 18.7695C88.4344 18.7695 90.8344 20.7962 90.8344 24.5029V29.7295C90.8344 30.8762 92.0344 30.7695 92.0344 31.1962C92.0344 31.5162 91.741 32.1029 91.5277 32.1029C89.421 31.9962 88.7277 31.9962 86.5944 32.0762C86.2744 32.1029 85.7144 31.8095 85.7144 31.5962ZM83.7144 29.6229C84.701 29.6229 85.7144 28.2895 85.7144 26.4762V26.1562C84.1944 26.7162 82.4344 26.9295 82.4344 28.3695C82.4344 29.1962 83.021 29.6229 83.7144 29.6229Z" fill="#E6F8EF"/>
<path d="M71.7554 29.3562C73.1687 29.3562 74.6354 28.6895 75.5687 27.6229C75.6754 27.5162 75.8087 27.4629 75.942 27.4629C76.182 27.4629 76.4487 27.6229 76.4487 27.9429C76.4487 28.8229 74.7687 32.3695 69.782 32.3695C65.5954 32.3695 62.582 29.5429 62.582 25.5695C62.582 21.6495 65.5154 18.7695 69.5154 18.7695C72.9554 18.7695 75.5954 20.8229 75.5954 23.4095C75.5954 26.2362 71.4087 27.7029 68.8487 27.9695C69.5154 28.8762 70.5287 29.3562 71.7554 29.3562ZM68.2354 26.8495C69.702 25.7029 70.902 24.4762 70.902 22.4229C70.902 21.0895 70.3954 20.3695 69.462 20.3695C68.342 20.3695 67.782 21.5962 67.782 23.8095C67.782 25.0362 67.942 26.0495 68.2354 26.8495Z" fill="#E6F8EF"/>
<path d="M52.1858 32.1025L46.7191 16.5292C46.3458 15.4625 45.1191 15.4892 45.1191 15.0625C45.1191 14.7425 45.4125 14.1825 45.6258 14.1825C46.6925 14.2359 48.0791 14.2625 49.4658 14.2625C50.8525 14.2625 52.2391 14.2359 53.3058 14.1825C53.5191 14.1825 53.7858 14.7425 53.7858 15.0625C53.7858 15.4892 52.1058 15.4625 52.4791 16.5292L56.4525 27.9959L60.4258 16.5292C60.7991 15.4625 59.1191 15.4892 59.1191 15.0625C59.1191 14.7425 59.3858 14.1559 59.5991 14.1825C60.0258 14.2359 60.8258 14.2625 61.6258 14.2625C62.4258 14.2625 63.2258 14.2359 63.6258 14.1825C63.8391 14.1559 64.1325 14.7425 64.1325 15.0625C64.1325 15.4892 62.9058 15.4625 62.5325 16.5292L57.0658 32.1025C56.1591 32.0492 55.3858 32.0225 54.6391 32.0225C53.8658 32.0225 53.1191 32.0492 52.1858 32.1025Z" fill="#E6F8EF"/>
<path fill-rule="evenodd" clip-rule="evenodd" d="M74 16.7022C74 17.3614 73.3805 17.8451 72.741 17.6852L70.4851 17.1213C70.1666 17.0416 69.8334 17.0416 69.5149 17.1213L67.259 17.6852C66.6195 17.8451 66 17.3614 66 16.7022C66 16.2798 66.262 15.9017 66.6575 15.7534L69.2978 14.7633C69.7505 14.5936 70.2495 14.5936 70.7022 14.7633L73.3425 15.7534C73.738 15.9017 74 16.2798 74 16.7022Z" fill="#00B65E"/>
</svg>
